/* XPM */
static char *result[] = {
/* columns rows colors chars-per-pixel */
"32 32 71 1 ",
"  c #4F2713",
". c #4E2913",
"X c #532C14",
"o c #542E19",
"O c #57321C",
"+ c #5A341D",
"@ c #5D381E",
"# c #5B3721",
"$ c #5E3C24",
"% c #613D25",
"& c #613E29",
"* c #624127",
"= c #64442C",
"- c #674B2F",
"; c #694A2F",
": c #674731",
"> c #654A35",
", c #6A4D31",
"< c #634C38",
"1 c #6C4E39",
"2 c #6E5134",
"3 c #66513D",
"4 c #68523F",
"5 c #705335",
"6 c #735539",
"7 c #75593B",
"8 c #785A3E",
"9 c #675341",
"0 c #695542",
"q c #6C5843",
"w c #6F5F4D",
"e c #7A5E43",
"r c #6F604E",
"t c #7D6144",
"y c #73624E",
"u c #7F6548",
"i c #746552",
"p c #7A6A57",
"a c #7C6D5C",
"s c #7E705E",
"d c #806649",
"f c #836A4D",
"g c #876E52",
"h c #886F52",
"j c #806F5C",
"k c #877053",
"l c #8A7256",
"z c #81715F",
"x c #8C765A",
"c c #8E795C",
"v c #907A5D",
"b c #827564",
"n c #857866",
"m c #867968",
"M c #897C6B",
"N c #947F63",
"B c #8E816F",
"V c #968165",
"C c #988267",
"Z c #9A8569",
"A c #8F8271",
"S c #928576",
"D c #948778",
"F c #968B7B",
"G c #988C7E",
"H c #998F81",
"J c #9C9283",
"K c #9F9588",
"L c #A0978A",
"P c #A2988C",
"I c None",
/* pixels */
"=mzj@22255f+d5555558@d22522&jjn%",
">FMM%dffffh=vdffdffh=hdffff=MMH&",
"1HSS%dffffv;Nffffffv=xfffff=SSH&",
"1LSD&dxvvNN8vxvxxvxv;vxxxxv=SSK:",
"2LGL&fvvvvN6NvvvvxnN,vvxvvn&HHK:",
"2LLL=fNNNZZeNNNNNNNN,NNNNNN:KKL>",
"1PLL%fNCNNZ6ZNNNNNNC,ZNNNNN:KKL1",
"1PLL%fNNNNZ6ZNNNNNNZ;NNNNNN:KLL:",
"&PGG%dvvvvC5ZvvvxvvC=Cvvvvv=FFP:",
"&PGG@tvvvvN6NvvvvvxC;Cxxvvv:FFL1",
"&JNS@dvvvvN2NvvnxvxN;Nxvxvv&SSH:",
"&JSMX8hffhh;lffffffv%xfffff&MMH:",
"%FnMX8hfffh%hffffffx@hfffff&mmD&",
"%SMMX8fhffh@hteeeeeh+hfffdf&nnS&",
"+XooX88888dX5%%%##+eo876165#XXX#",
"+DGDXXXXXXXXXXNNMSOXXXXXXXXoFDF%",
"@BssX****%*X$XsXXpX$X,-*-*-.asB@",
"$naaX-55777X,orzXyX$.722322Xppn#",
"%siiX-22,27X,XrrXrX$X7,22,2Xiis+",
"$syyX*2,2,7X-X03p0X$X7,,,,,XrraO",
"Oirr.*,2-27X,*.XXX%2.7,,,2,.rri.",
".yqq.*----7X,,****-,X6-----.r3y.",
"Xyqq.$----7X-,,-,-,-X7-----.qqy.",
" yqq.$----7.-2-2,,-,X6-----.qqy.",
".@#OO%$$$%7X$$%$%$%%X6$$***OO$O.",
" nnsn...XXXXXXXX.o..XXXX..ossss.",
".rrri.psazbnmMBMBmmmnnnspa.irri.",
" <<<i.33334099990qq9999939.y<<3.",
" X    .         ...         .   ",
"IIIIIIIIIIIIIIIIIIIIIIIIIIIIIIII",
"IIIIIIIIIIIIIIIIIIIIIIIIIIIIIIII",
"IIIIIIIIIIIIIIIIIIIIIIIIIIIIIIII"
};
