/* XPM */
static char *result[] = {
/* columns rows colors chars-per-pixel */
"110 120 13 1 ",
"  c #1E1E1E",
". c #49397F",
"X c #424747",
"o c #58615D",
"O c #6E7970",
"+ c #E5DD65",
"@ c #62579A",
"# c #8C9888",
"$ c #B4BDAB",
"% c #E1A59C",
"& c #EFCFB9",
"* c #F0F0B3",
"= c #D5CBD6",
/* pixels */
"                                                                                                              ",
"                                                                                                              ",
"                                                                                                              ",
"                                                                                                              ",
"                                                                                                              ",
"                                                                                                              ",
"                                                                                                              ",
"                                                                                                              ",
"                                                                                                              ",
"                                                                                                              ",
"                                                                                                              ",
"                                                                                                              ",
"                                                                                                              ",
"                                                                                                              ",
"                                                                                                              ",
"                                                                                                              ",
"                                                                                                              ",
"                                                                                                              ",
"                                                                                                              ",
"                                                                                                              ",
"                                                                                                              ",
"                       .....***************......          .....***************.....                          ",
"                       .....***************......          .....***************.....                          ",
"                       .....***************......          .....***************.....                          ",
"                       .....***************......          .....***************.....                          ",
"                       .....***************......          .....***************.....                          ",
"                  ooooooooooooooo%%%%%*****.....................*****%%%%%%%%%%.....                          ",
"                  ooooooooooooooo%%%%%*****.....................*****%%%%%%%%%%.....                          ",
"                  ooooooooooooooo%%%%%*****.....................*****%%%%%%%%%%.....                          ",
"                  ooooooooooooooo%%%%%*****.....................*****%%%%%%%%%%.....                          ",
"                  ooooooooooooooo%%%%%*****.....................*****%%%%%%%%%%.....                          ",
"                  oooooOOOOOooooo%%%%%*****=====================*****%%%%%%%%%%.....                          ",
"                  oooooOOOOOooooo%%%%%*****=====================*****%%%%%%%%%%.....                          ",
"                  oooooOOOOOooooo%%%%%*****=====================*****%%%%%%%%%%.....                          ",
"                  oooooOOOOOooooo%%%%%*****=====================*****%%%%%%%%%%.....                          ",
"                  oooooOOOOOooooo%%%%%*****=====================*****%%%%%%%%%%.....                          ",
"             ooooooooooooooooooooooooo*****=====================***************.....                          ",
"             ooooooooooooooooooooooooo*****=====================***************.....                          ",
"             ooooooooooooooooooooooooo*****=====================***************.....                          ",
"             ooooooooooooooooooooooooo*****=====================***************.....                          ",
"             ooooooooooooooooooooooooo*****=====================***************.....                          ",
"             $$$$$XXXXXXXXXXXXXXX$$$$$ooooo=====================***************.....                          ",
"             $$$$$XXXXXXXXXXXXXXX$$$$$ooooo=====================***************.....                          ",
"             $$$$$XXXXXXXXXXXXXXX$$$$$ooooo=====================***************.....                          ",
"             $$$$$XXXXXXXXXXXXXXX$$$$$ooooo=====================***************.....                          ",
"             $$$$$XXXXXXXXXXXXXXX$$$$$ooooo=====================***************.....                          ",
"             $$$$$XXXXXXXXXXXXXXX$$$$$ooooo************************************..........                     ",
"             $$$$$XXXXXXXXXXXXXXX$$$$$ooooo************************************..........                     ",
"             $$$$$XXXXXXXXXXXXXXX$$$$$ooooo************************************..........                     ",
"             $$$$$XXXXXXXXXXXXXXX$$$$$ooooo************************************..........                     ",
"             $$$$$XXXXXXXXXXXXXXX$$$$$ooooo************************************..........                     ",
"             OOOOO$$$$$$$$$$$$$$$OOOOOXXXXX**************************.....*****.....                          ",
"             OOOOO$$$$$$$$$$$$$$$OOOOOXXXXX**************************.....*****.....                          ",
"             OOOOO$$$$$$$$$$$$$$$OOOOOXXXXX**************************.....*****.....                          ",
"             OOOOO$$$$$$$$$$$$$$$OOOOOXXXXX**************************.....*****.....                          ",
"             OOOOO$$$$$$$$$$$$$$$OOOOOXXXXX**************************.....*****.....                          ",
"             OOOOO###############OOOOOXXXXX************************************..........                     ",
"             OOOOO###############OOOOOXXXXX************************************..........                     ",
"             OOOOO###############OOOOOXXXXX************************************..........                     ",
"             OOOOO###############OOOOOXXXXX************************************..........                     ",
"             OOOOO###############OOOOOXXXXX************************************..........                     ",
"             OOOOO#####XXXXX#####OOOOOXXXXX**************************&&&&&&&&&&.....                          ",
"             OOOOO#####XXXXX#####OOOOOXXXXX**************************&&&&&&&&&&.....                          ",
"             OOOOO#####XXXXX#####OOOOOXXXXX**************************&&&&&&&&&&.....                          ",
"             OOOOO#####XXXXX#####OOOOOXXXXX**************************&&&&&&&&&&.....                          ",
"             OOOOO#####XXXXX#####OOOOOXXXXX**************************&&&&&&&&&&.....                          ",
"             OOOOO###############OOOOOXXXXX@@@@@@@@@@@@@@@@@@@@@@@@@@..........                               ",
"             OOOOO###############OOOOOXXXXX@@@@@@@@@@@@@@@@@@@@@@@@@@..........                               ",
"             OOOOO###############OOOOOXXXXX@@@@@@@@@@@@@@@@@@@@@@@@@@..........                               ",
"             OOOOO###############OOOOOXXXXX@@@@@@@@@@@@@@@@@@@@@@@@@@..........                               ",
"             OOOOO###############OOOOOXXXXX@@@@@@@@@@@@@@@@@@@@@@@@@@..........                               ",
"             XXXXXXXXXXXXXXXXXXXXXXXXX@@@@@@@@@@@+++++*****@@@@@@@@@@*****=====.....                          ",
"             XXXXXXXXXXXXXXXXXXXXXXXXX@@@@@@@@@@@+++++*****@@@@@@@@@@*****=====.....                          ",
"             XXXXXXXXXXXXXXXXXXXXXXXXX@@@@@@@@@@@+++++*****@@@@@@@@@@*****=====.....                          ",
"             XXXXXXXXXXXXXXXXXXXXXXXXX@@@@@@@@@@@+++++*****@@@@@@@@@@*****=====.....                          ",
"             XXXXXXXXXXXXXXXXXXXXXXXXX@@@@@@@@@@@+++++*****@@@@@@@@@@*****=====.....                          ",
"             XXXXXXXXXXXXXXXXXXXXXXXXX@@@@@@@@@@@+++++*****@@@@@@@@@@*****=====.....                          ",
"                                 .....***********++++++++++***************=====.....                          ",
"                                 .....***********++++++++++***************=====.....                          ",
"                                 .....***********++++++++++***************=====.....                          ",
"                                 .....***********++++++++++***************=====.....                          ",
"                                 .....***********++++++++++***************=====.....                          ",
"                                 .....*******************************..........                               ",
"                                 .....*******************************..........                               ",
"                                 .....*******************************..........                               ",
"                                 .....*******************************..........                               ",
"                                 .....*******************************..........                               ",
"                                 .....*******************************.....                                    ",
"                                 .....*******************************.....                                    ",
"                                 .....*******************************.....                                    ",
"                                 .....*******************************.....                                    ",
"                                 .....*******************************.....                                    ",
"                                 .....===========**********==========.....                                    ",
"                                 .....===========**********==========.....                                    ",
"                                 .....===========**********==========.....                                    ",
"                                 .....===========**********==========.....                                    ",
"                                 .....===========**********==========.....                                    ",
"                                 .....===========..........==========.....                                    ",
"                                 .....===========..........==========.....                                    ",
"                                 .....===========..........==========.....                                    ",
"                                 .....===========..........==========.....                                    ",
"                                 .....===========..........==========.....                                    ",
"                                                                                                              ",
"                                                                                                              ",
"                                                                                                              ",
"                                                                                                              ",
"                                                                                                              ",
"                                                                                                              ",
"                                                                                                              ",
"                                                                                                              ",
"                                                                                                              ",
"                                                                                                              ",
"                                                                                                              ",
"                                                                                                              ",
"                                                                                                              ",
"                                                                                                              ",
"                                                                                                              ",
"                                                                                                              ",
"                                                                                                              ",
"                                                                                                              "
};
