/* XPM */
static char *result[] = {
/* columns rows colors chars-per-pixel */
"32 32 5 1 ",
"  c #72751B",
". c #787B21",
"X c #7F8226",
"o c #656C17",
"O c white",
/* pixels */
"                                ",
"                                ",
"                                ",
"                                ",
"                                ",
"                                ",
"                                ",
"                                ",
"                                ",
"                                ",
"                                ",
"                                ",
"                                ",
"                                ",
"                                ",
"            ..                  ",
"           X.                   ",
"          ..o                   ",
"      XX. ..o                   ",
"       X..o.o                   ",
"       o..oo                    ",
"        oo                      ",
"                                ",
"                                ",
"                           X    ",
"                    .XX   X     ",
"                     X.. XX     ",
"                     o.. ..     ",
"                      o. .o     ",
"                       o o      ",
"                                ",
"                                "
};
