/* XPM */
static char *result[] = {
/* columns rows colors chars-per-pixel */
"32 32 238 2 ",
"   c black",
".  c #06090F",
"X  c #13100B",
"o  c #19140A",
"O  c #0C131B",
"+  c #111111",
"@  c gray9",
"#  c #201A0E",
"$  c #251C10",
"%  c #2D2514",
"&  c #2E291B",
"*  c #0F1820",
"=  c #0E1825",
"-  c #0E1826",
";  c #111B25",
":  c #1A1B20",
">  c #101C2A",
",  c #142231",
"<  c #142634",
"1  c gray15",
"2  c #22272C",
"3  c gray17",
"4  c #2B2B2D",
"5  c #2A2B2E",
"6  c #2F2F2F",
"7  c #2E2E30",
"8  c #313132",
"9  c gray20",
"0  c #393633",
"q  c #3F3F3E",
"w  c #4C3F2E",
"e  c #434129",
"r  c #41403E",
"t  c #4E473B",
"y  c #5C4C36",
"u  c #554A3C",
"i  c #5F503C",
"p  c #66522D",
"a  c #685438",
"s  c #785E35",
"d  c #23394D",
"f  c #203956",
"g  c #213D57",
"h  c #2E4051",
"j  c #3A4653",
"k  c #2A4761",
"l  c #3F586F",
"z  c #2C4F73",
"x  c #2E557B",
"c  c #414141",
"v  c #494A47",
"b  c #4A4B4C",
"n  c #544E42",
"m  c #555145",
"M  c #5C5142",
"N  c #4F5051",
"B  c #4F5152",
"V  c #565554",
"C  c gray34",
"Z  c #535659",
"A  c #52585E",
"S  c #5A5A5C",
"D  c #645541",
"F  c #6C5B42",
"G  c #625B4F",
"H  c #605D4E",
"J  c #7E6746",
"K  c #7A6648",
"L  c #63665D",
"P  c #41566E",
"I  c #4B5B6A",
"U  c #485B70",
"Y  c #516474",
"T  c #516576",
"R  c #57667A",
"E  c #606469",
"W  c #616969",
"Q  c #7F7768",
"!  c #666A71",
"~  c #6C7279",
"^  c #72767A",
"/  c #8A6B3D",
"(  c #846A47",
")  c #8B6E42",
"_  c #856C4A",
"`  c #A17B43",
"'  c #A17B45",
"]  c #A37E4B",
"[  c #837A68",
"{  c #7F816A",
"}  c #9C8B5E",
"|  c #A88047",
" . c #AB965D",
".. c #AC965C",
"X. c #AD9D5D",
"o. c #8D8964",
"O. c #8A856B",
"+. c #9A9569",
"@. c #8E8970",
"#. c #82807E",
"$. c #8A8678",
"%. c #8E8F7F",
"&. c #968A72",
"*. c #93937F",
"=. c #9D9579",
"-. c #AE9A62",
";. c #B6AA6D",
":. c #AFAB78",
">. c #C0AC72",
",. c #325A83",
"<. c #365E83",
"1. c #3C6185",
"2. c #3B6797",
"3. c #3D6B9B",
"4. c #3D71A4",
"5. c #5A6F8B",
"6. c #416E9B",
"7. c #43719D",
"8. c #647380",
"9. c #687A89",
"0. c #767E85",
"q. c #4077AB",
"w. c #4474A9",
"e. c #4378AB",
"r. c #4379AF",
"t. c #4578AD",
"y. c #467AAE",
"u. c #4A79A9",
"i. c #457DB4",
"p. c #447EB5",
"a. c #4A7BB0",
"s. c #487EB4",
"d. c #4680B9",
"f. c #4681BA",
"g. c #4D83BA",
"h. c #5989B7",
"j. c #5B8BB9",
"k. c #6080A3",
"l. c #778FA6",
"z. c #748FAA",
"x. c #688FB5",
"c. c #6490B9",
"v. c #6693BD",
"b. c #6492BF",
"n. c #7D96B2",
"m. c #7096BB",
"M. c #548FC7",
"N. c #5997D2",
"B. c #5C9AD5",
"V. c #6693C0",
"C. c #6897C3",
"Z. c #629BD5",
"A. c #6C9FD0",
"S. c #71A1CE",
"D. c #68A0D4",
"F. c #64A2DB",
"G. c #63A1DD",
"H. c #66A2DC",
"J. c #66A2DD",
"K. c #70A1D0",
"L. c #7EABD2",
"P. c #6CA8E2",
"I. c #6CA8E3",
"U. c #6AA9E6",
"Y. c #6BABE8",
"T. c #72ACE2",
"R. c #75B0E8",
"E. c #76B0E8",
"W. c #76B2EA",
"Q. c #73B2EE",
"!. c #75B2ED",
"~. c #73B3F0",
"^. c #73B3F1",
"/. c #76B4F0",
"(. c #77B5F1",
"). c #76B6F3",
"_. c #77B6F3",
"`. c #76B7F5",
"'. c #77B7F5",
"]. c #78B7F4",
"[. c #77B8F5",
"{. c #78B8F5",
"}. c #78B8F6",
"|. c #79BAF8",
" X c #898C8F",
".X c #938F8B",
"XX c #8D928F",
"oX c #828990",
"OX c #858990",
"+X c #858B91",
"@X c #8C8E90",
"#X c #909092",
"$X c #909196",
"%X c #929397",
"&X c #90969B",
"*X c #A89C89",
"=X c #9BAD99",
"-X c #A9A08E",
";X c #ABA18E",
":X c #BFB48F",
">X c #9C9CA1",
",X c #9A9FA4",
"<X c #9AA0A6",
"1X c #9EA0A4",
"2X c #A2A3A3",
"3X c #A4A5A6",
"4X c #A6A7AD",
"5X c #A5A9AC",
"6X c #AAABAD",
"7X c #AEAFB4",
"8X c #AEB1B7",
"9X c #B4B6B8",
"0X c #B9B9BD",
"qX c #CDC197",
"wX c #E0D397",
"eX c #E5D49C",
"rX c #DDD1A4",
"tX c #C5C1B9",
"yX c #EDDEA7",
"uX c #F6E7B1",
"iX c #F8E9B2",
"pX c #97B4D0",
"aX c #93BAD4",
"sX c #82B9EC",
"dX c gray76",
"fX c #C7C9CD",
"gX c #CED2D6",
"hX c #CCD4DB",
"jX c #D1D7DC",
"kX c #D9DADB",
"lX c #DDDBD8",
"zX c #E0DFDC",
"xX c #E3E4E6",
"cX c #E4E4E4",
"vX c #E7E7E7",
"bX c #ECEAE7",
"nX c #F8F8F8",
"mX c None",
/* pixels */
"mXmXmXmXmXmXmXmXmXmXmXmXmXmXmXmXmXmXmXmXmXmXmXmXmXmXmXmXmXmXmXmX",
"mXmXmXmXmXmXmXmXmXmXmXmXmXmXmXmXmXmXmXmXmXmXmXmXmXmXmXmXmXmXmXmX",
"mXmXmXmXmXmXmXmXmXmXmXmXmXmXmXmXmXmXmXmXmXmXmXmXmXmXmXmXmXmXmXmX",
"mXmXmXmXmXmXmXmXmXmXmXmXmXmXmXmXmXmXmXmXmXmXmXmXmXmXmXmXmXmXmXmX",
"mXmXmXmXmXmXmXmXmXmXmXmXmXmXmXmXmXmXmXmXmXmXmXmXmXmXmXmXmXmXmXmX",
"mXmXmXmXmXmXmXmXmXmXmXmXmXmXmXmXmXmXmXmXmXmXmXmXmXmXmXmXmXmXmXmX",
"mXmXmXmXmXmXmXmXmXmXmXmXmXmXmXmXmXmXmXmXmXmXmXmXmXmXmXmXmXmXmXmX",
"mXmXmXmXmXmXmXmXmXmX3 mXmXmXmXmXmXmXmXmXmXmXmXmXmXmXmXmXmXmXmXmX",
"mXmXmXmXmXmXmXmXmX9 %X4 mXmXmXmXmXmXmXmXmXmXmXmXmXmXmXmXmXmXmXmX",
"mXmXmXmXmXmXmXmXmX>XxX<X0 / o mXmXmXmX  mXmX    mXmXmXmXmXmXmXmX",
"mXmXmXmXmXmXmXmXmX8 1X8XV ] s mXmXmX# | $ mX3XkX6 mXmXmXmXmXmXmX",
"mXmXmXmXmXmXmXmXmXmXw OXC #.G i % p ' M _ 0X@XZ dXmXmXmXmXmXmXmX",
"mXmXmXmXmXmXmXmXmXmX; V.A 5XtXQ m ` ( q E 7XfX9Xc mXmXmXmXmXmXmX",
"mXmXmXmXmXmXmXmXmXmX<.`._.R.j.!.R *X) r 0.N S D   mXmXmXmXmXmXmX",
"mXmXmXmXmXmXmXmXmXmXh.|.|.|.{.k.L cX-Xn b ~ B y   mXmXmXmXmXmXmX",
"mXmXmXmXmXmXmXmXmXd ~.H.|.T.l./.(.&XnXbX[ t u mXmXmXmXmXmXmXmXmX",
"mXmXmXmXmXmXmX. = l ^.a.I.8.hXE.Q.+XnXvXlX;XF X mXmXmXmXmXmXmXmX",
"mXmXmXmXmXmX. q.6.A.|.[.P.L.sX5.=XjX,XK.m.vX&.a   mXmXmXmXmXmXmX",
"mXmXmXmXmXmX- 2.7.D.).}.].W.S.:.+.2Xc.}._.oXzXJ   mXmXmXmXmXmXmX",
"mXmXmXmXmXmXP n.z O k aXXX%.o.O.qXY M.B.Y.x.#XK   mXmXmXmXmXmXmX",
"mXmXmXmXmXmX5 , mXmXmXH @.=.:XuXrXv.G.}.F.9.4X.X  mXmXmXmXmXmXmX",
"mXmXmXmXmXmXmXmXmXmXmX1  .yXiX>.} pXU.N.U v $X7 mXmXmXmXmXmXmXmX",
"mXmXmXmXmXmXmXmXmXmX> p.W -...eXwX$.z.I |.b.! mXmXmXmXmXmXmXmXmX",
"mXmXmXmXmXmXmXmXmXmXx f.r.T *.;.X.{ C.|.|.Z.f mXmXmXmXmXmXmXmXmX",
"mXmXmXmXmXmXmXmXmXmX< e.3.i.1.& e h J.|.'.g.4.mXmXmXmXmXmXmXmXmX",
"mXmXmXmXmXmXmXmXmXmX+ 6X X* mXmXmXmX,.w.t.d.g mXmXmXmXmXmXmXmXmX",
"mXmXmXmXmXmXmXmXmXmXmX    mXmXmXmXmX2 y.s.u.j mXmXmXmXmXmXmXmXmX",
"mXmXmXmXmXmXmXmXmXmXmXmXmXmXmXmXmXmXmX^ gX: @ mXmXmXmXmXmXmXmXmX",
"mXmXmXmXmXmXmXmXmXmXmXmXmXmXmXmXmXmXmXmXc mXmXmXmXmXmXmXmXmXmXmX",
"mXmXmXmXmXmXmXmXmXmXmXmXmXmXmXmXmXmXmXmXmXmXmXmXmXmXmXmXmXmXmXmX",
"mXmXmXmXmXmXmXmXmXmXmXmXmXmXmXmXmXmXmXmXmXmXmXmXmXmXmXmXmXmXmXmX",
"mXmXmXmXmXmXmXmXmXmXmXmXmXmXmXmXmXmXmXmXmXmXmXmXmXmXmXmXmXmXmXmX"
};
